<svg viewBox="0 0 100 100" xmlns="http://www.w3.org/2000/svg">
  <path fill="#FF9999" d="
    M15 100
    L0 85
    L85 0
    L100 15
    l-5 5
    l-5 -5
    l-1 1
    l5 5
    l-5 5
    l-5 -5
    l-1 1
    l5 5
    l-5 5
    l-5 -5
    l-1 1
    l5 5
    l-5 5
    l-5 -5
    l-1 1
    l5 5
    l-5 5
    l-5 -5
    l-1 1
    l5 5
    l-5 5
    l-5 -5
    l-1 1
    l5 5
    l-5 5
    l-5 -5
    l-1 1
    l5 5
    l-5 5
    l-5 -5
    l-1 1
    l5 5
    l-5 5
    l-5 -5
    l-1 1
    l5 5
    l-5 5
    l-5 -5
    l-1 1
    l5 5
    l-5 5
    l-5 -5
    l-1 1
    l5 5
    l-5 5
    l-5 -5
    l-1 1
    l5 5
    l-5 5
    l-5 -5
    l-1 1
    l5 5
    z
  "/>
</svg>
